<?xml version="1.0" encoding="utf-8"?>
<!-- Generator: Adobe Illustrator 25.4.1, SVG Export Plug-In . SVG Version: 6.00 Build 0)  -->
<svg version="1.1" id="Warstwa_1" xmlns="http://www.w3.org/2000/svg" xmlns:xlink="http://www.w3.org/1999/xlink" x="0px" y="0px"
	 viewBox="0 0 289.8 149.2" style="enable-background:new 0 0 289.8 149.2;" xml:space="preserve">
<style type="text/css">
	.st0{fill:#151515;}
</style>
<g>
	<path class="st0" d="M44,30.4c2.4,0,4.3,0.6,5.6,1.8c1.3,1.2,2,2.9,2,5.2c0,2.1-0.7,3.8-2,5c-1.3,1.2-3.2,1.8-5.6,1.8
		c-9.7,0-17.1,3.4-22,10.2c-4.9,6.8-7.4,15.6-7.4,26.4v45.8c0,2-0.7,3.7-2.1,5c-1.4,1.3-3.1,2-5.1,2c-2.3,0-4.1-0.6-5.4-1.9
		c-1.3-1.3-2-3-2-5.1V39.4c0-2.1,0.8-3.8,2.3-5.1c1.5-1.3,3.2-1.9,5.1-1.9c1.9,0,3.5,0.6,4.8,1.9c1.3,1.3,2,3,2,5.1v8
		C19.7,36.1,29.6,30.4,44,30.4z"/>
	<path class="st0" d="M103.8,2c1.9,0,3.4,0.6,4.7,1.7c1.3,1.1,1.9,2.6,1.9,4.3c0,1.7-1,3.7-3,6C99.8,20.7,94,29.6,89.9,40.9
		c-4.1,11.3-6.1,23-6.1,35.1c0,12.1,2.1,23.6,6.2,34.3c4.1,10.7,10.1,19.4,18,26.1v-0.2c2,1.6,3,3.5,3,5.8c0,1.7-0.7,3.5-2.2,5.2
		c-1.5,1.3-3.1,2-5,2c-1.9,0-3.5-0.7-5-2.2c-9.6-8.4-17-18.9-22.1-31.4C71.6,103.1,69,89.9,69,76.2c0-13.6,2.5-26.8,7.5-39.6
		s12-23.5,21.1-32C99.5,2.9,101.5,2,103.8,2z"/>
	<path class="st0" d="M209.9,59.1c-2.9-4.7-6.7-8.4-11.4-11.1c-4.7-2.7-9.8-4-15.3-4c-6.5,0-12.7,1.4-18.4,4.3
		c-5.7,2.9-10.4,6.9-13.9,12.1c-3.5,5.2-5.3,11.1-5.3,17.8v48.2c0,2.3-0.6,4-1.9,5.3c-1.3,1.3-3,1.9-5.3,1.9c-2.3,0-4.1-0.7-5.5-2
		c-1.4-1.3-2.1-3.1-2.1-5.2V6.4c0-2,0.7-3.6,2.2-4.7c1.5-1.1,3.2-1.7,5.2-1.7s3.7,0.6,5.2,1.7c1.5,1.1,2.2,2.7,2.2,4.7v43.8
		c3.5-6.7,8.6-11.6,15.4-14.9c6.8-3.3,14.3-4.9,22.4-4.9c7.9,0,15.3,1.8,22.2,5.3c6.9,3.5,12.5,8.7,16.8,15.5
		c4.3,6.8,6.4,14.8,6.4,24v51.2c0,2.3-0.6,4-1.9,5.3c-1.3,1.3-3,1.9-5.3,1.9c-2.3,0-4.1-0.7-5.4-2c-1.3-1.3-2-3.1-2-5.2V75.2
		C214.2,69.2,212.8,63.8,209.9,59.1z"/>
	<path class="st0" d="M248.2,8.4c0-1.9,0.8-3.5,2.3-5c1.5-1.5,3.2-2.2,5.1-2.2c1.7,0,3.4,0.8,5,2.4c9.5,8.3,16.7,18.9,21.8,31.9
		c5.1,13,7.6,26.4,7.6,40.3c0,13.9-2.6,27.1-7.7,39.8c-5.1,12.7-12.4,23.1-21.9,31.4c-1.5,1.5-3.1,2.2-5,2.2c-1.9,0-3.5-0.7-5-2.1
		c-1.5-1.4-2.2-3-2.2-4.9c0-2.1,0.9-3.9,2.8-5.4c8.1-6.3,14.2-14.8,18.3-25.5c4.1-10.7,6.1-22.2,6.1-34.5c0-12.4-2.1-24.4-6.4-35.9
		c-4.3-11.5-10.3-20.7-18.2-27.5C249.1,11.8,248.2,10.1,248.2,8.4z"/>
</g>
</svg>
